<svg xmlns="http://www.w3.org/2000/svg" width="186" height="90" viewBox="0 0 186 54" fill="none">
<path d="M46.3601 13.3826L34.7682 20.0739L23.1837 26.7652L11.5919 33.4565L0 40.1478V13.3826L23.1837 0L46.3601 13.3826Z" fill="#204C5A"/>
<path d="M46.3601 40.1482L23.1837 53.5308L0 40.1482L11.5919 33.4569L23.1837 26.7656L34.7682 33.4569L46.3601 40.1482Z" fill="#2F86A1"/>
<path d="M46.36 13.3828V40.148L34.7681 33.4567L23.1836 26.7654L34.7681 20.0741L46.36 13.3828Z" fill="#42D3FF"/>
<path d="M80.1726 36.4018C77.5408 36.4018 75.3977 35.5941 73.7434 33.9787C72.0891 32.3633 71.2637 30.212 71.2673 27.5248V27.0614C71.2383 25.3899 71.5961 23.7344 72.3126 22.2241C72.9562 20.8627 73.9859 19.7206 75.2734 18.9396C76.5962 18.1586 78.1096 17.7595 79.6455 17.7864C82.1005 17.7864 84.0331 18.5605 85.4433 20.1087C86.8535 21.6569 87.561 23.8524 87.5657 26.6953V28.6532H76.1329C76.2886 29.8264 76.7561 30.7697 77.5355 31.4831C78.3149 32.1965 79.3018 32.5502 80.4963 32.5443C82.3439 32.5443 83.7878 31.8752 84.8278 30.5369L87.1837 33.1757C86.4385 34.2141 85.4307 35.0357 84.2635 35.5564C82.9786 36.1355 81.5818 36.4242 80.1726 36.4018ZM79.6261 21.6528C79.1934 21.6376 78.7625 21.716 78.363 21.8826C77.9634 22.0493 77.6045 22.3003 77.3109 22.6185C76.7214 23.2623 76.3428 24.1843 76.1753 25.3847H82.8433V25.0009C82.8221 23.9397 82.535 23.1143 81.9819 22.5247C81.4289 21.9352 80.6437 21.6445 79.6261 21.6528Z" fill="white"/>
<path d="M95.7542 23.4763L98.775 18.1172H103.904L98.7945 26.9111L104.113 36.0658H98.9696L95.7665 30.4254L92.5829 36.0658H87.4219L92.7474 26.9075L87.6642 18.1172H92.7934L95.7542 23.4763Z" fill="white"/>
<path d="M121.006 27.2611C121.006 30.0273 120.378 32.2423 119.123 33.906C117.867 35.5698 116.172 36.4022 114.038 36.4034C112.225 36.4034 110.76 35.7726 109.641 34.5109V42.9652H104.848V18.1188H109.292L109.459 19.8875C110.621 18.4937 112.136 17.7969 114.004 17.7969C116.216 17.7969 117.936 18.6152 119.165 20.2518C120.394 21.8884 121.007 24.1447 121.006 27.0206V27.2611ZM116.211 26.9074C116.211 25.2377 115.917 23.9489 115.327 23.041C114.738 22.1331 113.878 21.6797 112.748 21.6809C111.243 21.6809 110.208 22.2563 109.644 23.4071V30.7613C110.234 31.9463 111.279 32.5359 112.78 32.53C115.068 32.53 116.211 30.6576 116.211 26.9127V26.9074Z" fill="white"/>
<path d="M127.677 36.0656H122.859V10.5859H127.672L127.677 36.0656Z" fill="white"/>
<path d="M129.521 26.9275C129.491 25.2817 129.843 23.6513 130.549 22.1644C131.194 20.8162 132.225 19.6901 133.511 18.9295C134.799 18.1678 136.295 17.7863 137.999 17.7852C140.422 17.7852 142.399 18.5262 143.931 20.0084C145.462 21.4905 146.317 23.5033 146.494 26.0467L146.527 27.2741C146.527 30.0297 145.761 32.2394 144.228 33.9032C142.695 35.5669 140.632 36.3994 138.038 36.4005C135.449 36.4005 133.386 35.571 131.847 33.912C130.308 32.253 129.537 29.9961 129.534 27.1415L129.521 26.9275ZM134.316 27.2671C134.316 28.9744 134.637 30.2785 135.278 31.1794C135.92 32.0802 136.838 32.5318 138.032 32.5342C139.192 32.5342 140.099 32.0885 140.752 31.1971C141.406 30.3056 141.732 28.8795 141.732 26.9186C141.732 25.2455 141.406 23.9484 140.752 23.0275C140.099 22.1066 139.181 21.6474 137.999 21.6497C136.827 21.6497 135.92 22.1066 135.278 23.0205C134.637 23.9343 134.316 25.3498 134.316 27.2671Z" fill="white"/>
<path d="M158.208 22.6219C157.637 22.5395 157.061 22.4952 156.483 22.4892C154.669 22.4892 153.48 23.103 152.916 24.3304V36.0639H148.121V18.1117H152.651L152.783 20.2536C153.746 18.6028 155.079 17.7775 156.782 17.7775C157.288 17.7741 157.791 17.8469 158.275 17.9932L158.208 22.6219Z" fill="white"/>
<path d="M167.102 36.4018C164.47 36.4018 162.327 35.5941 160.673 33.9787C159.019 32.3633 158.193 30.212 158.197 27.5248V27.0614C158.168 25.3899 158.526 23.7344 159.242 22.2241C159.886 20.8627 160.915 19.7206 162.203 18.9396C163.526 18.1586 165.039 17.7595 166.575 17.7864C169.03 17.7864 170.963 18.5605 172.373 20.1087C173.783 21.6569 174.491 23.8524 174.495 26.6953V28.6532H163.064C163.22 29.8264 163.688 30.7697 164.467 31.4831C165.246 32.1965 166.233 32.5502 167.428 32.5443C169.275 32.5443 170.719 31.8752 171.759 30.5369L174.115 33.1757C173.37 34.2141 172.362 35.0357 171.195 35.5564C169.909 36.1358 168.512 36.4244 167.102 36.4018ZM166.556 21.6528C166.124 21.6393 165.694 21.719 165.296 21.8866C164.897 22.0541 164.54 22.3056 164.248 22.6238C163.658 23.2676 163.279 24.1897 163.11 25.39H169.78V25.0062C169.759 23.945 169.472 23.1196 168.919 22.53C168.366 21.9405 167.578 21.6481 166.556 21.6528Z" fill="white"/>
<path d="M185.932 22.6219C185.36 22.5395 184.784 22.4952 184.206 22.4892C182.391 22.4892 181.202 23.103 180.639 24.3304V36.0639H175.844V18.1117H180.373L180.506 20.2536C181.468 18.6028 182.801 17.7775 184.505 17.7775C185.011 17.774 185.514 17.8467 185.998 17.9932L185.932 22.6219Z" fill="white"/>
</svg>